<svg width="13" height="12" viewBox="0 0 13 12" fill="none" xmlns="http://www.w3.org/2000/svg">
<path d="M12.125 1V9.125C12.125 9.29076 12.0592 9.44973 11.942 9.56694C11.8247 9.68415 11.6658 9.75 11.5 9.75C11.3343 9.75 11.1753 9.68415 11.0581 9.56694C10.9409 9.44973 10.875 9.29076 10.875 9.125V2.50859L1.9422 11.4422C1.82492 11.5595 1.66586 11.6253 1.50001 11.6253C1.33416 11.6253 1.1751 11.5595 1.05782 11.4422C0.940549 11.3249 0.874664 11.1659 0.874664 11C0.874664 10.8341 0.940549 10.6751 1.05782 10.5578L9.99142 1.625H3.37501C3.20925 1.625 3.05028 1.55915 2.93307 1.44194C2.81586 1.32473 2.75001 1.16576 2.75001 1C2.75001 0.83424 2.81586 0.675269 2.93307 0.558058C3.05028 0.440848 3.20925 0.375 3.37501 0.375H11.5C11.6658 0.375 11.8247 0.440848 11.942 0.558058C12.0592 0.675269 12.125 0.83424 12.125 1Z" fill="black"/>
</svg>
