<svg width="20" height="21" viewBox="0 0 20 21" fill="none" xmlns="http://www.w3.org/2000/svg">
<path d="M15.625 5.5V13.625C15.625 13.7908 15.5592 13.9497 15.442 14.0669C15.3247 14.1842 15.1658 14.25 15 14.25C14.8343 14.25 14.6753 14.1842 14.5581 14.0669C14.4409 13.9497 14.375 13.7908 14.375 13.625V7.00859L5.4422 15.9422C5.32492 16.0595 5.16586 16.1253 5.00001 16.1253C4.83416 16.1253 4.6751 16.0595 4.55782 15.9422C4.44055 15.8249 4.37466 15.6659 4.37466 15.5C4.37466 15.3341 4.44055 15.1751 4.55782 15.0578L13.4914 6.125H6.87501C6.70925 6.125 6.55028 6.05915 6.43307 5.94194C6.31586 5.82473 6.25001 5.66576 6.25001 5.5C6.25001 5.33424 6.31586 5.17527 6.43307 5.05806C6.55028 4.94085 6.70925 4.875 6.87501 4.875H15C15.1658 4.875 15.3247 4.94085 15.442 5.05806C15.5592 5.17527 15.625 5.33424 15.625 5.5Z" fill="#A958FA"/>
</svg>
