<svg width="56" height="56" viewBox="0 0 56 56" fill="none" xmlns="http://www.w3.org/2000/svg">
<rect x="0.5" y="0.5" width="55" height="55" rx="27.5" fill="white"/>
<rect x="0.5" y="0.5" width="55" height="55" rx="27.5" stroke="#111111"/>
<path d="M37 28C37 28.1989 36.921 28.3897 36.7803 28.5303C36.6397 28.671 36.4489 28.75 36.25 28.75H21.5603L27.0306 34.2194C27.1003 34.289 27.1556 34.3718 27.1933 34.4628C27.231 34.5539 27.2504 34.6514 27.2504 34.75C27.2504 34.8485 27.231 34.9461 27.1933 35.0372C27.1556 35.1282 27.1003 35.2109 27.0306 35.2806C26.9609 35.3503 26.8782 35.4056 26.7872 35.4433C26.6961 35.481 26.5985 35.5004 26.5 35.5004C26.4014 35.5004 26.3039 35.481 26.2128 35.4433C26.1218 35.4056 26.039 35.3503 25.9694 35.2806L19.2194 28.5306C19.1496 28.461 19.0943 28.3782 19.0566 28.2872C19.0188 28.1961 18.9994 28.0986 18.9994 28C18.9994 27.9014 19.0188 27.8038 19.0566 27.7128C19.0943 27.6217 19.1496 27.539 19.2194 27.4694L25.9694 20.7194C26.1101 20.5786 26.301 20.4996 26.5 20.4996C26.699 20.4996 26.8899 20.5786 27.0306 20.7194C27.1713 20.8601 27.2504 21.051 27.2504 21.25C27.2504 21.449 27.1713 21.6399 27.0306 21.7806L21.5603 27.25H36.25C36.4489 27.25 36.6397 27.329 36.7803 27.4697C36.921 27.6103 37 27.8011 37 28Z" fill="#111111"/>
</svg>
