<svg width="56" height="56" viewBox="0 0 56 56" fill="none" xmlns="http://www.w3.org/2000/svg">
<rect x="0.5" y="0.5" width="55" height="55" rx="27.5" fill="white"/>
<rect x="0.5" y="0.5" width="55" height="55" rx="27.5" stroke="#111111"/>
<path d="M36.7806 28.5306L30.0306 35.2806C29.8899 35.4213 29.699 35.5004 29.5 35.5004C29.301 35.5004 29.1101 35.4213 28.9694 35.2806C28.8286 35.1399 28.7496 34.949 28.7496 34.75C28.7496 34.551 28.8286 34.3601 28.9694 34.2194L34.4397 28.75H19.75C19.5511 28.75 19.3603 28.671 19.2197 28.5303C19.079 28.3897 19 28.1989 19 28C19 27.8011 19.079 27.6103 19.2197 27.4697C19.3603 27.329 19.5511 27.25 19.75 27.25H34.4397L28.9694 21.7806C28.8286 21.6399 28.7496 21.449 28.7496 21.25C28.7496 21.051 28.8286 20.8601 28.9694 20.7194C29.1101 20.5786 29.301 20.4996 29.5 20.4996C29.699 20.4996 29.8899 20.5786 30.0306 20.7194L36.7806 27.4694C36.8504 27.539 36.9057 27.6217 36.9434 27.7128C36.9812 27.8038 37.0006 27.9014 37.0006 28C37.0006 28.0986 36.9812 28.1961 36.9434 28.2872C36.9057 28.3782 36.8504 28.461 36.7806 28.5306Z" fill="#111111"/>
</svg>
