<svg width="24" height="24" viewBox="0 0 24 24" fill="none" xmlns="http://www.w3.org/2000/svg">
<path d="M17.9314 11.9949C17.9314 8.79089 12 0.857178 12 0.857178C12 0.857178 6.06854 8.79089 6.06854 11.9949C6.06832 12.7738 6.2216 13.5451 6.51962 14.2648C6.81764 14.9844 7.25457 15.6382 7.80542 16.1889C8.35627 16.7396 9.01025 17.1764 9.72998 17.4742C10.4497 17.772 11.2211 17.9251 12 17.9246C13.5728 17.9246 15.0812 17.2999 16.1935 16.1879C17.3058 15.0759 17.9309 13.5677 17.9314 11.9949Z" stroke="black" stroke-width="2" stroke-linecap="round" stroke-linejoin="round"/>
<path d="M0.857117 17.9932C2.1787 19.6666 3.87676 21.0042 5.81306 21.8973C7.74936 22.7904 9.86918 23.2136 12 23.1326C14.1307 23.2134 16.2505 22.79 18.1867 21.8969C20.123 21.0039 21.8211 19.6664 23.1428 17.9932" stroke="black" stroke-width="2" stroke-linecap="round" stroke-linejoin="round"/>
</svg>
