<svg width="26" height="26" viewBox="0 0 26 26" fill="none" xmlns="http://www.w3.org/2000/svg">
<path d="M10.458 1.85718V7.56061" stroke="black" stroke-width="2" stroke-linecap="round" stroke-linejoin="round"/>
<path d="M19.7271 9.94683V7.56055H1.19055V18.9674C1.19055 19.1547 1.22744 19.3402 1.29912 19.5132C1.3708 19.6863 1.47586 19.8435 1.6083 19.9759C1.74074 20.1084 1.89798 20.2134 2.07102 20.2851C2.24407 20.3568 2.42954 20.3937 2.61684 20.3937H8.85169" stroke="black" stroke-width="2" stroke-linecap="round" stroke-linejoin="round"/>
<path d="M1.19055 7.56061L3.32998 3.43946C3.5605 2.9751 3.91329 2.58239 4.35037 2.30359C4.78745 2.02478 5.29229 1.87044 5.81055 1.85718H15.1071C15.6377 1.85727 16.1577 2.00542 16.6087 2.28495C17.0596 2.56449 17.4236 2.96432 17.6597 3.43946L19.7271 7.56061" stroke="black" stroke-width="2" stroke-linecap="round" stroke-linejoin="round"/>
<path d="M18.3334 25C19.9247 25 21.4508 24.3679 22.576 23.2426C23.7013 22.1174 24.3334 20.5913 24.3334 19C24.3334 17.4087 23.7013 15.8826 22.576 14.7574C21.4508 13.6321 19.9247 13 18.3334 13C16.7421 13 15.216 13.6321 14.0908 14.7574C12.9655 15.8826 12.3334 17.4087 12.3334 19C12.3334 20.5913 12.9655 22.1174 14.0908 23.2426C15.216 24.3679 16.7421 25 18.3334 25Z" stroke="black" stroke-width="2" stroke-linecap="round" stroke-linejoin="round"/>
<path d="M20.7334 16.6001L18.3334 19.0001" stroke="black" stroke-width="2" stroke-linecap="round" stroke-linejoin="round"/>
</svg>
