<svg width="25" height="24" viewBox="0 0 25 24" fill="none" xmlns="http://www.w3.org/2000/svg">
<g clip-path="url(#clip0_49_246)">
<path d="M10.4579 0.857178V6.56061" stroke="black" stroke-width="2" stroke-linecap="round" stroke-linejoin="round"/>
<path d="M19.727 12V6.56055H1.19045V17.9674C1.19045 18.1547 1.22734 18.3402 1.29902 18.5132C1.3707 18.6863 1.47576 18.8435 1.6082 18.9759C1.74064 19.1084 1.89788 19.2134 2.07092 19.2851C2.24397 19.3568 2.42944 19.3937 2.61674 19.3937H10.619" stroke="black" stroke-width="2" stroke-linecap="round" stroke-linejoin="round"/>
<path d="M1.19045 6.56061L3.32988 2.43946C3.5604 1.9751 3.91319 1.58239 4.35027 1.30359C4.78735 1.02478 5.29219 0.870444 5.81045 0.857178H15.107C15.6376 0.857269 16.1576 1.00542 16.6086 1.28495C17.0595 1.56449 17.4235 1.96432 17.6596 2.43946L19.727 6.56061" stroke="black" stroke-width="2" stroke-linecap="round" stroke-linejoin="round"/>
<path d="M14.0476 17.1428H20.4762C22.1322 17.1428 23.4762 18.4868 23.4762 20.1428C23.4762 20.9385 23.1601 21.7015 22.5975 22.2641C22.0349 22.8268 21.2718 23.1428 20.4762 23.1428H14.9047" stroke="black" stroke-width="2" stroke-linecap="round" stroke-linejoin="round"/>
<path d="M16.619 19.7144L14.0476 17.143L16.619 14.5715" stroke="black" stroke-width="2" stroke-linecap="round" stroke-linejoin="round"/>
</g>
<defs>
<clipPath id="clip0_49_246">
<rect width="24" height="24" fill="white" transform="translate(0.333313)"/>
</clipPath>
</defs>
</svg>
