<svg width="72" height="18" viewBox="0 0 72 18" fill="none" xmlns="http://www.w3.org/2000/svg">
<path fill-rule="evenodd" clip-rule="evenodd" d="M43.8593 5.38294C42.7127 5.38294 41.8049 5.61111 40.8971 6.1131C40.8971 3.60317 40.8971 1.27579 40.9927 0.5L35.4028 1.45833V1.91468L35.9761 2.00595C36.7405 2.14286 36.9794 2.55357 37.1227 3.5119C37.2661 5.42857 37.2183 15.5139 37.1227 17.2024C38.6038 17.5218 40.1805 17.75 41.7571 17.75C46.1526 17.75 48.7803 15.1488 48.7803 11.0417C48.8281 7.75595 46.6782 5.38294 43.8593 5.38294ZM41.9482 16.8373C41.6138 16.8373 41.1838 16.8373 40.9449 16.746C40.8494 15.6508 40.8016 10.996 40.8494 6.88889C41.3271 6.75198 41.6616 6.66072 42.0916 6.66072C43.9071 6.66072 44.9104 8.71429 44.9104 11.2242C44.9104 14.4187 43.6682 16.8373 41.9482 16.8373Z" fill="black"/>
<path fill-rule="evenodd" clip-rule="evenodd" d="M14.572 0.819365H0V1.54952L0.81221 1.64079C1.91108 1.7777 2.2933 2.41659 2.48441 3.92254C2.72329 6.75191 2.62774 11.9087 2.48441 14.3729C2.34107 15.8789 1.91108 16.5634 0.81221 16.6547L0 16.7916V17.4305H9.3643V16.7916L8.36098 16.6547C7.26211 16.5634 6.87989 15.8789 6.68878 14.3729C6.59323 13.3233 6.54545 11.6805 6.54545 9.6269L8.55209 9.71817C9.79429 9.71817 10.3676 10.6765 10.6065 11.9999H11.3709V6.34119H10.6065C10.3676 7.6646 9.79429 8.62294 8.55209 8.62294L6.54545 8.71421C6.54545 6.02175 6.64101 3.51183 6.68878 2.00587H9.60318C11.8487 2.00587 12.9954 3.32929 13.8076 5.7023L14.6198 5.47413L14.572 0.819365Z" fill="black"/>
<path fill-rule="evenodd" clip-rule="evenodd" d="M19.2541 5.24606C23.4108 5.24606 25.4652 7.93852 25.4652 11.498C25.4652 14.875 23.1719 17.75 19.0153 17.75C14.8587 17.75 12.8042 15.0576 12.8042 11.498C12.8042 8.07543 15.1453 5.24606 19.2541 5.24606ZM19.0153 6.02185C17.1997 6.02185 16.722 8.39487 16.722 11.4524C16.722 14.4643 17.5342 16.883 19.2064 16.883C21.1175 16.883 21.5952 14.5099 21.5952 11.4524C21.5952 8.48614 20.783 6.02185 19.0153 6.02185Z" fill="black"/>
<path fill-rule="evenodd" clip-rule="evenodd" d="M49.8792 11.5437C49.8792 8.30363 52.0292 5.20046 56.2336 5.20046C59.7213 5.20046 61.3457 7.66474 61.3457 10.9048H53.6536C53.5581 13.8255 55.0391 15.9703 58.0491 15.9703C59.3869 15.9703 60.0557 15.6509 60.8679 15.1032L61.2024 15.514C60.3902 16.6092 58.5746 17.7044 56.2336 17.7044C52.5547 17.7501 49.8792 15.1945 49.8792 11.5437ZM53.7014 10.0834L57.5713 9.99213C57.5713 8.3949 57.3324 6.02189 55.8991 6.02189C54.5136 6.02189 53.7969 8.258 53.7014 10.0834Z" fill="black"/>
<path fill-rule="evenodd" clip-rule="evenodd" d="M71.2356 5.88495C70.2322 5.47424 68.9423 5.24606 67.4134 5.24606C64.3557 5.24606 62.4446 6.98019 62.4446 9.03376C62.4446 11.0873 63.8301 11.9544 65.8367 12.5933C67.8912 13.3234 68.4645 13.8711 68.4645 14.7838C68.4645 15.7421 67.7001 16.6092 66.4101 16.6092C64.8334 16.6092 63.6868 15.7421 62.779 13.3691L62.2057 13.506L62.3012 16.9742C63.3046 17.385 65.1201 17.7044 66.6967 17.7044C69.9456 17.7044 72 16.1072 72 13.6885C72 12.0457 71.0922 11.0873 68.9423 10.3115C66.649 9.44448 65.789 8.89686 65.789 7.84725C65.789 6.79765 66.5534 6.11312 67.5089 6.11312C68.99 6.11312 69.9933 6.98019 70.7578 9.12503L71.3311 8.98812L71.2356 5.88495Z" fill="black"/>
<path fill-rule="evenodd" clip-rule="evenodd" d="M36.215 5.56556C34.8295 4.78976 32.3451 5.15484 31.0073 8.02984L31.1028 5.24611L25.5607 6.29572V6.75207L26.134 6.84334C26.8985 6.93461 27.2329 7.29969 27.2807 8.34929C27.424 10.266 27.3762 13.5517 27.2807 15.2402C27.1851 16.1985 26.8507 16.6548 26.134 16.7461L25.5607 16.8374V17.4763H33.2528V16.8374L32.2495 16.7461C31.4373 16.6548 31.1506 16.1985 31.1028 15.2402C30.9595 13.7342 30.9595 10.7223 31.0073 8.85127C31.4373 8.30365 33.2528 7.80167 34.8772 8.85127L36.215 5.56556Z" fill="black"/>
</svg>
