<svg width="1216" height="169" viewBox="0 0 1216 169" fill="none" xmlns="http://www.w3.org/2000/svg">
<path fill-rule="evenodd" clip-rule="evenodd" d="M688.939 152.919C694.988 152.919 700.409 148.744 701.53 142.491C702.696 135.989 703.306 129.279 703.306 122.42C703.306 62.971 657.492 14.7778 600.979 14.7778C544.465 14.7778 498.652 62.971 498.652 122.42C498.652 129.279 499.262 135.989 500.428 142.491C501.549 148.744 506.97 152.919 513.018 152.919H688.939Z" fill="#FC7A1D"/>
<path d="M3.44922 146.097V50.592H89.29V76.8558H34.9431V89.8172H86.9024V112.557H34.9431V146.097H3.44922Z" fill="black"/>
<path d="M98.6131 146.097V50.592H130.107V146.097H98.6131Z" fill="black"/>
<path d="M238.673 146.097H207.747L194.786 121.425H170.91V146.097H139.416V50.592H194.104C220.595 50.592 235.489 61.9616 235.489 87.0885C235.489 99.9362 229.691 109.032 221.618 114.717L238.673 146.097ZM170.91 76.7421V97.8897H191.944C199.902 97.8897 203.995 94.024 203.995 87.3159C203.995 80.6078 199.902 76.7421 191.944 76.7421H170.91Z" fill="black"/>
<path d="M288.319 149.28C255.347 149.167 239.771 138.934 240.567 114.148H268.877C269.218 120.629 274.676 124.608 288.319 124.722C300.371 124.836 305.942 121.425 305.942 116.991C305.942 113.921 304.237 110.737 294.914 109.373L282.634 107.44C264.557 104.484 242.841 102.324 242.841 77.8791C242.841 59.0055 258.19 47.4084 288.547 47.4084C315.947 47.4084 335.048 55.0261 334.48 82.3132H306.397C305.26 75.9463 299.916 71.9669 287.864 71.9669C277.404 71.9669 273.084 75.1504 273.084 79.4708C273.084 82.1996 274.789 85.4967 282.066 86.6337L292.185 88.3392C311.172 91.5227 337.209 92.0911 337.209 118.241C337.209 139.048 321.064 149.394 288.319 149.28Z" fill="black"/>
<path d="M440.667 50.592V76.8558H406.331V146.097H374.837V76.8558H340.5V50.592H440.667Z" fill="black"/>
<path d="M761.862 146.097V50.5919H793.356V119.833H844.292V146.097H761.862Z" fill="black"/>
<path d="M853.562 146.097V50.5919H885.055V146.097H853.562Z" fill="black"/>
<path d="M997.146 93.3418V146.097H980.319L979.864 133.477C973.27 142.572 961.332 149.28 944.505 149.28C915.171 149.28 892.659 128.929 892.659 98.3444C892.659 67.7601 914.034 47.4084 947.233 47.4084C969.859 47.4084 992.939 58.3233 996.691 84.0187H965.425C963.492 79.2434 957.238 74.5819 947.915 74.5819C933.817 74.5819 923.925 83.905 923.925 98.3444C923.925 112.784 934.044 122.107 947.006 122.107C951.667 122.107 963.605 120.856 966.789 109.714H945.755V93.3418H997.146Z" fill="black"/>
<path d="M1075.54 50.5919H1107.04V146.097H1075.54V111.533H1038.48V146.097H1006.98V50.5919H1038.48V85.1557H1075.54V50.5919Z" fill="black"/>
<path d="M1216 50.5919V76.8558H1181.66V146.097H1150.17V76.8558H1115.83V50.5919H1216Z" fill="black"/>
</svg>
