<svg width="130" height="17" viewBox="0 0 130 17" fill="none" xmlns="http://www.w3.org/2000/svg">
<path fill-rule="evenodd" clip-rule="evenodd" d="M61.6266 4.58315C61.6266 6.71922 61.3314 13.4326 61.3314 13.4326C61.3314 14.7142 61.848 15.3245 63.3241 15.3245V15.8738H57.5673V15.3245C59.0434 15.3245 59.8553 14.7753 59.8553 13.4326L60.3719 2.50812C59.9291 1.65369 59.4862 1.34854 58.3792 1.2875V0.73823H62.8074L67.5309 10.9303L72.3282 0.73823H76.3137V1.22647C75.2066 1.22647 74.5424 1.65369 74.5424 2.69121L75.059 13.2495C75.059 14.8363 75.428 15.2635 76.9779 15.2635V15.8128H70.2617V15.2635C71.5902 15.2635 72.1806 14.8973 72.1068 13.2495C72.1068 13.2495 71.8116 5.86479 71.7378 4.52212L68.4904 11.8458C68.0476 12.7612 67.6047 13.8598 67.3095 15.0194L66.2763 15.0804C65.981 14.287 65.3168 12.8223 65.3168 12.8223C65.3168 12.8223 62.586 6.65819 61.6266 4.58315Z" fill="black"/>
<path fill-rule="evenodd" clip-rule="evenodd" d="M56.1651 15.9349C55.7961 15.8738 55.5008 15.8738 55.1318 15.8738C54.4676 15.8738 53.2129 16.179 51.7368 16.179C46.0539 16.179 41.9208 13.3716 41.9208 8.18398C41.9208 3.78979 45.8325 0.433107 51.8106 0.433107C53.2129 0.433107 54.7628 0.677229 56.0913 1.10444C56.3865 0.86032 56.4603 0.738259 56.6817 0.555168H57.1983C57.1245 1.34856 56.7555 3.91185 56.7555 3.91185H56.2389C55.8699 2.38608 54.9104 1.40959 51.8844 1.40959C48.268 1.40959 44.9468 3.78979 44.9468 8.18398C44.9468 13.1275 48.3418 15.3246 52.1058 15.3246C54.5414 15.3246 56.0175 14.165 56.9769 12.7613L57.5674 13.0054L56.1651 15.9349Z" fill="black"/>
<path fill-rule="evenodd" clip-rule="evenodd" d="M39.7067 3.54565H39.1163C39.0425 2.20298 38.5258 1.77577 37.1974 1.77577H34.688V13.0664C34.688 14.9584 35.1308 15.3245 36.6069 15.3245V15.8738H30.1121V15.3245C31.5882 15.3245 32.0311 14.9584 32.0311 13.0054V1.77577H29.5217C27.898 1.77577 27.6028 2.14195 27.16 3.54565H26.5695L27.0124 0.311036L27.4552 0.372066C27.6028 0.738249 27.9718 0.738249 29.0051 0.738249H37.4188C38.9687 0.738249 39.3377 0.738249 39.7067 0.311036H40.2233L39.7067 3.54565Z" fill="black"/>
<path fill-rule="evenodd" clip-rule="evenodd" d="M21.3295 16.24C20.1486 16.24 19.1891 16.118 18.4511 15.8738C17.7868 15.7518 17.2702 15.5076 16.975 15.3856C16.606 15.6907 16.3846 16.0569 16.3846 16.0569L15.8679 15.9349L16.2369 12.4561L16.8274 12.5172C17.1964 14.1039 18.4511 15.2635 21.1818 15.2635C23.2484 15.2635 24.6506 13.7988 24.6506 12.273C24.6506 10.9914 24.0602 10.3201 21.9199 9.03841C21.2556 8.67223 20.5914 8.36707 20.0748 8.06192C18.1559 7.08543 16.975 5.92585 16.975 4.03391C16.975 1.89784 19.1153 0.433107 21.9937 0.433107C23.6174 0.433107 24.7245 0.86032 25.0197 0.982382L25.6101 0.433107L26.0529 0.494137L25.6101 3.60669L25.0935 3.48463C25.0935 2.0199 24.0602 1.4096 22.2889 1.4096C20.6652 1.4096 19.4105 2.14196 19.4105 3.48463C19.4105 4.70524 20.5176 5.49864 21.8461 6.23101C22.5103 6.59719 23.027 6.90234 23.6174 7.14646C26.6434 8.91635 27.3814 10.0759 27.3814 11.8458C27.3814 14.3481 25.0197 16.24 21.3295 16.24Z" fill="black"/>
<path fill-rule="evenodd" clip-rule="evenodd" d="M11.3659 3.54565H10.7016C10.7016 2.26401 10.0374 1.77576 8.63511 1.77576H4.72348V7.4516H7.23282C8.5613 7.4516 8.78271 6.90233 9.00413 5.92584H9.59456V9.95385H9.00413C8.85652 8.8553 8.5613 8.42809 7.15902 8.42809H4.72348V13.2495C4.72348 15.0194 5.24011 15.2635 6.64239 15.2635V15.8128H0V15.2635C1.6237 15.2635 1.91891 14.8973 1.91891 13.2495V2.69122C1.91891 1.71473 1.40228 1.22649 0 1.22649V0.738244H9.07793C10.6278 0.738244 10.9968 0.677214 11.2183 0.25H11.8087L11.3659 3.54565Z" fill="black"/>
<path fill-rule="evenodd" clip-rule="evenodd" d="M105.171 4.40006V13.0664C105.171 14.9583 105.688 15.3245 107.09 15.3245V15.8738H96.8312V15.3245C97.6431 15.3245 98.3073 15.0804 98.3073 14.6532C98.3073 14.348 98.2335 13.8598 98.0121 13.3715L97.2002 11.2965H91.5173C91.4435 11.6017 90.4102 13.9819 90.4102 14.5922C90.4102 15.1414 91.2221 15.3245 91.7387 15.3245V15.8738H86.9414V15.3245C87.8271 15.3245 88.4913 15.2635 89.0818 13.7377L93.51 2.01987C93.2148 1.53163 92.9196 1.34854 92.3292 1.2875V0.73823H96.2408L100.964 13.0054C101.407 14.287 101.85 14.9583 102.514 15.2635C103.547 14.9583 103.843 14.7142 103.843 13.0054V2.69121C103.031 1.83678 102.957 1.22647 101.481 1.22647V0.73823H105.909L113.216 10.9914V3.17945C113.216 1.59266 112.773 1.22647 111.297 1.22647V0.73823H121.039V1.22647C120.449 1.22647 119.932 1.4706 119.932 1.95884C119.932 2.32502 120.08 2.69121 120.301 3.11842L123.106 8.06189L125.836 3.24048C126.279 2.56915 126.353 2.26399 126.353 1.89781C126.353 1.4706 125.984 1.22647 125.246 1.22647V0.73823H129.822V1.22647C128.715 1.22647 127.977 2.0809 127.46 3.11842L123.917 9.16044V13.1274C123.917 14.8363 124.434 15.2635 125.836 15.2635V15.8128H119.194V15.2635C120.596 15.2635 121.113 14.8363 121.113 13.1274V9.77075L117.275 3.05739C116.611 1.77575 116.316 1.4706 115.873 1.2875C114.987 1.59266 114.766 2.0809 114.766 3.24048V14.287C114.766 14.287 114.839 15.1414 114.913 16.179L113.806 16.24L105.171 4.40006ZM94.3219 3.72873L91.8863 10.259H96.905L94.3219 3.72873Z" fill="black"/>
<path fill-rule="evenodd" clip-rule="evenodd" d="M83.5465 10.259C83.5465 10.259 82.7346 10.259 82.218 10.259V13.3715C82.218 14.9583 82.7346 15.3245 84.2107 15.3245V15.8738H77.4945V15.3245C78.8968 15.3245 79.4135 14.8973 79.4135 13.3105V3.11842C79.4135 1.53163 78.8968 1.22647 77.4945 1.22647V0.73823H82.5132C87.3843 0.73823 90.2627 1.95884 90.2627 5.25449C90.3365 8.73323 86.8677 10.259 83.5465 10.259ZM82.6608 1.77575H82.218V9.16044H83.0299C85.9082 9.16044 87.3843 8.06189 87.3843 5.37655C87.3843 2.63018 86.0558 1.77575 82.6608 1.77575Z" fill="black"/>
<path fill-rule="evenodd" clip-rule="evenodd" d="M53.2129 12.9443C49.8917 12.9443 47.6776 10.9914 47.6776 8.18396C47.6776 5.49862 50.0393 3.42358 53.2129 3.42358C56.3127 3.42358 58.6745 5.43759 58.6745 8.18396C58.6745 10.8693 56.2389 12.9443 53.2129 12.9443ZM53.2129 4.33904C50.925 4.33904 50.187 6.16995 50.187 8.24499C50.187 10.198 50.8512 12.1509 53.2129 12.1509C55.5009 12.1509 56.1651 10.198 56.1651 8.18396C56.1651 6.23098 55.2795 4.33904 53.2129 4.33904Z" fill="black"/>
<path fill-rule="evenodd" clip-rule="evenodd" d="M14.9823 12.0899V11.6017C15.8679 11.6017 16.0155 11.3576 16.0155 11.1745C16.0155 10.8693 15.9417 10.6862 15.8679 10.4421C15.8679 10.4421 15.7203 9.89284 15.4989 9.46562H12.1039L11.7349 10.3811C11.6611 10.6252 11.5873 10.8083 11.5873 11.1134C11.5873 11.4186 11.9563 11.6017 12.4729 11.6017V12.0899H9.07794V11.6017C9.96359 11.6017 10.2588 11.3576 10.6278 10.6252L13.211 4.15597C13.1372 3.85082 12.842 3.66772 12.3253 3.66772V3.11845H15.1299C17.4178 8.6112 18.0083 10.0149 18.0083 10.0149C18.4511 11.2355 18.8939 11.6017 19.5582 11.6017V12.0899H14.9823ZM13.7276 5.13246L12.3991 8.67223H15.1299L13.7276 5.13246Z" fill="black"/>
</svg>
